<?xml version="1.0" encoding="utf-8" ?>
<svg baseProfile="full" height="512px" version="1.1" width="512px" xmlns="http://www.w3.org/2000/svg" xmlns:ev="http://www.w3.org/2001/xml-events" xmlns:xlink="http://www.w3.org/1999/xlink"><defs /><rect fill="#1E73D9" height="512" rx="90" ry="90" width="512" x="0" y="0" /><circle cx="200" cy="180" fill="white" r="40" /><rect fill="white" height="140" width="60" x="170" y="220" /><rect fill="white" height="120" transform="rotate(-20,140,360)" width="50" x="140" y="360" /><rect fill="white" height="120" transform="rotate(20,260,360)" width="50" x="210" y="360" /><rect fill="white" height="110" transform="rotate(-30,120,240)" width="50" x="120" y="240" /><rect fill="white" height="110" transform="rotate(30,280,240)" width="50" x="230" y="240" /><rect fill="#FFD22E" height="40" width="180" x="260" y="350" /><rect fill="#FFD22E" height="40" width="180" x="260" y="410" /><rect fill="white" height="100" width="140" x="330" y="80" /><polygon fill="white" points="330,80 400,20 470,80" /><rect fill="#1E73D9" height="40" width="30" x="385" y="110" /><rect fill="#1E73D9" height="30" width="30" x="340" y="100" /><rect fill="#1E73D9" height="30" width="30" x="400" y="100" /><rect fill="#1E73D9" height="30" width="30" x="340" y="140" /><rect fill="#1E73D9" height="30" width="30" x="400" y="140" /><text fill="white" font-family="Arial" font-size="70px" font-weight="bold" x="115" y="500">WALKSAFE</text></svg>